<svg id="visual" viewBox="0 0 1920 1080" xmlns="http://www.w3.org/2000/svg" xmlns:xlink="http://www.w3.org/1999/xlink" version="1.1"><g transform="translate(-404.03355510906425 897.5168761703894)"><path d="M595.1 -888.4C712.3 -850.7 707.7 -585.9 806.8 -368.6C905.9 -151.2 1108.7 18.7 1138.1 199.2C1167.6 379.8 1023.6 571 867.8 753.2C711.9 935.5 544.2 1108.7 334.2 1197.5C124.2 1286.4 -128.1 1290.8 -242 1121.5C-355.8 952.2 -331.3 609 -325.9 401.5C-320.4 193.9 -333.9 121.9 -333.9 54.2C-334 -13.4 -320.5 -76.8 -303.5 -148.8C-286.5 -220.8 -266 -301.4 -214.8 -369.2C-163.6 -437 -81.8 -492 78.6 -614.2C239 -736.5 477.9 -926 595.1 -888.4"></path></g></svg>